<?xml version="1.0" encoding="utf-8"?>
<!-- Generator: Adobe Illustrator 22.0.1, SVG Export Plug-In . SVG Version: 6.00 Build 0)  -->
<svg version="1.1" id="Layer_1" xmlns="http://www.w3.org/2000/svg" xmlns:xlink="http://www.w3.org/1999/xlink" x="0px" y="0px"
	 viewBox="0 0 1280 1024" style="enable-background:new 0 0 1280 1024;" xml:space="preserve">
<style type="text/css">
	.st0{fill:#070707;}
	.st1{fill:#FFFFFF;}
</style>
<g>
	<path class="st0" d="M972.5,617.6c2-17.3,4-34.5,7.5-64.3c-41.8,41.6-51.2,81.7-43.5,124.2c6.3,34.9,32,34.4,52.4,12.8
		c33.7-35.7,53.7-78,50.2-138.5c12.1,12.2,33.4,23.5,34.8,36.8c6,56.7-28.2,96.4-68.9,129.3c-34.5,27.9-71.5,30.7-107.1-4.1
		c-24.5,32.8-52,45.1-84.3,12.3c-61.1,42.4-85.4,30.5-100.1-57.6c-10.7,26.3-16.5,45-25.7,61.9c-5.6,10.2-16.4,17.5-24.9,26.1
		c-7.2-11.9-17.3-23-20.9-35.9c-3.6-13.1-0.8-28-0.8-57c-35.8,49.5-43.5,120.3-111,95.4c-19.8-7.3-35.4-51.9-36.3-79.9
		c-2.1-64.1,28.9-108.1,80-115.6c61-9,43.3,57.1,72,89.3c5.8-37.1,10.7-68.3,16-101.9c52.8,13,26.6,51.4,29.5,90.1
		c17.9-31.7,28.7-56,44.6-76.3c6.9-8.8,24.4-9.3,37.1-13.6c2.9,11.5,9.7,23.6,7.9,34.3c-6.9,40.9-16.6,81.3-25.3,122
		c7.2,2.8,14.3,5.6,21.5,8.4c9.1-18.5,21.2-36.2,26.6-55.7c8.1-29.4,9.5-60.8,18.2-90c3.2-10.7,19-17.7,29.1-26.4
		c5.5,13.2,16.8,27.1,15.4,39.4c-4.9,40.2-14.4,79.8-22.1,119.6c8,2.1,16,4.1,23.9,6.2c5.9-18.3,11.2-36.8,17.7-55
		c12.4-34.6,20.4-72.3,40.2-102.2c9.7-14.6,41.3-17.4,63.5-19.4c6.9-0.6,23.4,20.4,21.9,29.3c-3.7,21.9-15.3,42.5-23.7,63.5
		C982.7,622.8,977.6,620.2,972.5,617.6z M535.7,739.5c71.8-40.6,74.3-78.8,12-120.2C543.6,659.8,540.1,694.8,535.7,739.5z"/>
	<path class="st0" d="M374.2,692.7c-8.4-87.8,78.8-101.9,86.7-166.1c-62.9,34.4-113.1,81.3-150.8,155c41.5,8.6,77.5,13.6,112,23.9
		c41.6,12.4,61.5,41.1,43.6,92.7c103.7,1,204,57.4,297.2-20.8c14.7,40.5-4.2,77.3-54.9,78.8c-65.6,1.9-132-6.3-197.1-16.3
		c-39.6-6.1-73.8-14.7-107.8,17.9c-15.7,15.1-43.8,25.5-65.2,23.9c-19.1-1.5-36.7-22.4-54.9-34.8c12.5-13.7,22.5-32.6,38-39.6
		c20.9-9.5,46.9-7.4,69.1-15c13.1-4.5,23.1-18.2,34.5-27.7c-9.9-9.9-18.1-24.5-30-28.6c-22.2-7.8-46.9-8.1-70-14
		c-41.3-10.4-55.7-36.5-39.8-77c27.5-69.7,75.9-121.3,142.3-154.1c42.4-21,78.2,2.6,68.5,45.4C480.9,601.8,438.8,648.7,374.2,692.7z
		"/>
	<path class="st0" d="M717,317.2c-5.5,17.6-10.1,35.5-16.6,52.6c-16.3,42.5-40,73-97.6,46.8c0,34.8,0,64.3,0,101.9
		c-56.4-1.3-37.2-47-45.2-74.1c-23-10.6-46.4-21.4-61.2-28.2c-28.3,7.3-63.5,25.9-73.4,16.8c-17.6-16.1-25.4-48.7-26.9-74.9
		c-1.5-28,6.3-57.7,15.7-84.7c4.8-13.6,22.1-22.8,33.8-34c3.8,15.4,12.3,31.5,10.4,46.1c-5.1,37.8-14.8,75-22.7,112.4
		c6.9,2.7,13.8,5.4,20.7,8.2c12.2-24.7,26.8-48.5,35.9-74.3c8.4-23.8,8.4-50.7,17.2-74.3c4-10.8,20.2-17.2,30.8-25.5
		c5,13.8,15.8,28.5,13.8,41.3c-6,39.3-16.8,77.8-25.7,116.6c6.4,2.8,12.8,5.5,19.2,8.3c9.8-16.6,21.5-32.5,28.7-50.1
		c6.3-15.5,3.6-35.2,11.6-49.3c13.3-23.6-9.8-71.9,45.8-68.2c74.7,4.9,74.7,4.1,83,73.3c0.6,5.1,1.2,10.2,1.8,15.2L717,317.2z
		 M619.9,399.2c51.3-30.9,64.6-76.8,41-133.2C617.6,299.6,601.9,347.7,619.9,399.2z"/>
	<path class="st0" d="M716,318.9c12.1-26.1,19.4-56.5,37.8-76.8c14.6-16.1,43-19.6,65.2-28.7c5.7,24.4,21.3,52,14.6,72.3
		c-8.9,26.9-35.3,47.9-59.2,77.8c10.4,31.5,39.1,31.2,54.7-3.2c21.2-46.7,28.4-99.5,43-149.3c5.2-17.8,14.6-34.4,22.1-51.6
		c6.2,14.5,12.3,29.1,18.8,43.5c5.4,12,8,28,17.2,35.2c36.3,28,39.4,58.2,15.1,95.4c-6.6,10.2-6.8,24.6-11.2,42.1
		c50.1-35.3,67.3-82,64.2-147.5c11.5,14.5,29.2,27.4,33.3,43.8c9.2,36.7-39.6,116.4-75.6,131.5c-37.3,15.6-61.3-1.2-56.6-41.7
		c2.2-18.4,10.5-35.9,14.5-54.2c2.3-10.8,1.5-22.3,2.1-33.5c-4.1-0.6-8.3-1.3-12.4-1.9c-6.2,18.3-12,36.7-18.5,54.9
		c-24.1,67.1-53.4,93.9-101.8,90.1c-63.5-5.1-54.4-59.6-66-99.8C717,317.2,716,318.9,716,318.9z"/>
	<path class="st0" d="M380.4,169.6c-19.9-4.4-153.8,143.6-142.1,179.9c11.5,35.7,65.6,2.6,93.4,6.2c48.1,6.3,62.5,36.5,32.7,74.8
		c-15.9,20.4-39.9,38.1-64,47.3c-17.3,6.5-33.8-5.6-53.3-10.8c-13-3.5-12.9-30.2-10.3-41c4.8-19.4,21.1-27.6,41.7-27.1
		c6.9,0.2,8.6,1.3,10.1,8c1.2,5.4-2.5,9.8-7.3,14c-31.3,27.1-24.9,38.7,14.9,27.5c22-6.2,43.1-23.7,52-43c2.2-4.7,0.9-11.6-3-15
		c-20.9-17.8-54.9-2.1-82.3-4.4c-49.7-4.2-66.9-28.5-51.2-76.1c22.2-67.4,65.6-119.7,125.9-156.1c42.1-25.4,76.3-3.7,71,44.2
		c-4,36-25.9,90.8-63.7,123.4c-26.1,22.5-36.3,12.3-46.6,12.3c-20.5,0,0-20.5,5.1-21.6c6.5-1.4,32.7-25.4,35.9-29.7
		c30.8-41,41-51.3,51.3-92.3C392.7,182.1,388.4,171.3,380.4,169.6z"/>
	<path class="st1" d="M535.7,739.5c4.5-44.7,7.9-79.6,12-120.2C610,660.7,607.5,698.9,535.7,739.5z"/>
	<path class="st1" d="M619.9,399.2c-18.1-51.6-2.3-99.6,41-133.2C684.5,322.5,671.3,368.3,619.9,399.2z"/>
</g>
</svg>
